<svg width="460" height="337" viewBox="0 0 460 337" fill="none" xmlns="http://www.w3.org/2000/svg">
<path d="M355.192 64.473C340.531 48.8226 329.181 30.1389 311.657 17.3668C284.131 -2.73736 244.516 -4.69753 212.33 7.93194C180.144 20.5614 155.072 46.0188 138.546 74.8445C129.853 90.011 123.025 106.555 110.287 118.948C99.5184 129.419 85.3657 136.1 71.9467 143.376C50.3112 155.075 29.4754 169.212 15.4748 188.609C1.47413 208.006 -4.78584 233.482 4.16453 255.342C10.1997 270.093 22.3561 281.829 34.81 292.455C49.465 304.948 65.2174 316.647 83.3958 324.09C106.155 333.351 131.42 335.343 156.195 336.286C200.118 337.95 244.11 336.706 287.846 332.564C323.661 329.177 360.56 323.396 390.525 304.681C432.5 278.473 454.142 230.455 459.014 183.367C460.997 164.535 460.495 144.964 452.747 127.49C434.219 85.6937 384.225 95.4697 355.192 64.473Z" fill="#EFF1F7"/>
</svg>
